<svg xmlns="http://www.w3.org/2000/svg" xmlns:xlink="http://www.w3.org/1999/xlink" viewBox="0,0,256,256" width="32px" height="32px"><g fill="#3dae43" fill-rule="nonzero" stroke="none" stroke-width="1" stroke-linecap="butt" stroke-linejoin="miter" stroke-miterlimit="10" stroke-dasharray="" stroke-dashoffset="0" font-family="none" font-weight="none" font-size="none" text-anchor="none" style="mix-blend-mode: normal"><g transform="scale(8,8)"><path d="M6,4.69922v0.10156h5v-0.10156zM21,4.69922v0.10156h5v-0.10156zM6,6.5v0.30078h5v-0.30078zM21,6.5v0.30078h5v-0.30078zM6,8.30078v0.39844h5v-0.39844zM21,8.30078v0.39844h5v-0.39844zM6,10.09961v0.5h5v-0.5zM21,10.09961v0.5h5v-0.5zM6,11.90039v0.59961h5v-0.59961zM21,11.90039v0.59961h5v-0.59961zM6,13.69922v0.80078h5v-0.80078zM21,13.69922v0.80078h5v-0.80078zM6,15.5v0.90039h5v-0.90039zM21,15.5v0.90039h5v-0.90039zM6,17.30078v0.59961v0.40039h5v-0.30078v-0.69922zM21,17.30078v0.69922v0.30078h5v-0.40039v-0.59961zM6.09961,19.09961c0,0.4 0.10117,0.80117 0.20117,1.20117h5.29883c-0.2,-0.4 -0.4,-0.80117 -0.5,-1.20117zM20.90039,19.09961c-0.1,0.4 -0.20039,0.80117 -0.40039,1.20117h5.30078c0.1,-0.4 0.19922,-0.80117 0.19922,-1.20117zM6.40039,20.90039c0.1,0.4 0.3,0.89883 0.5,1.29883h6.40039c-0.5,-0.3 -1.00078,-0.79883 -1.30078,-1.29883zM20,20.90039c-0.4,0.5 -0.80039,0.99883 -1.40039,1.29883h6.5c0.2,-0.4 0.3,-0.89883 0.5,-1.29883zM7.19922,22.69922c0.3,0.5 0.50078,1.00039 0.80078,1.40039h15.90039c0.4,-0.4 0.70039,-0.90039 0.90039,-1.40039zM8.30078,24.5c0.5,0.6 1.09922,1.09961 1.69922,1.59961h11.90039c0.6,-0.5 1.19922,-0.99961 1.69922,-1.59961zM10.40039,26.30078c1.6,1.1 3.49961,1.69922 5.59961,1.69922c2.1,0 3.99961,-0.59922 5.59961,-1.69922z"></path></g></g></svg>